<svg width="86" height="86" viewBox="0 0 86 86" fill="none" xmlns="http://www.w3.org/2000/svg">
<g filter="url(#filter0_ddii_249_854)">
<rect x="3" width="80" height="80" rx="16" fill="#272727" shape-rendering="crispEdges"/>
<rect x="3" width="80" height="80" rx="16" fill="url(#paint0_radial_249_854)" fill-opacity="0.2" shape-rendering="crispEdges"/>
<path d="M43 53.8667C40.7022 55.2267 38.0128 56 35.1667 56C26.5239 56 19.5 48.8267 19.5 40C19.5 31.1733 26.5239 24 35.1667 24C38.0128 24 40.7022 24.7733 43 26.1333C38.3261 28.9067 35.1667 34.08 35.1667 40C35.1667 45.9467 38.3261 51.0933 43 53.8667Z" fill="url(#paint1_linear_249_854)"/>
<path d="M43 53.8667C45.2978 55.2267 47.9872 56 50.8333 56C59.4761 56 66.5 48.8267 66.5 40C66.5 31.1733 59.4761 24 50.8333 24C47.9872 24 45.2978 24.7733 43 26.1333C47.6739 28.9067 50.8333 34.08 50.8333 40C50.8333 45.9467 47.6739 51.0933 43 53.8667Z" fill="url(#paint2_linear_249_854)"/>
</g>
<defs>
<filter id="filter0_ddii_249_854" x="0" y="0" width="86" height="86" filterUnits="userSpaceOnUse" color-interpolation-filters="sRGB">
<feFlood flood-opacity="0" result="BackgroundImageFix"/>
<feColorMatrix in="SourceAlpha" type="matrix" values="0 0 0 0 0 0 0 0 0 0 0 0 0 0 0 0 0 0 127 0" result="hardAlpha"/>
<feOffset dy="2.76726"/>
<feGaussianBlur stdDeviation="1.1069"/>
<feColorMatrix type="matrix" values="0 0 0 0 0 0 0 0 0 0 0 0 0 0 0 0 0 0 0.1197 0"/>
<feBlend mode="normal" in2="BackgroundImageFix" result="effect1_dropShadow_249_854"/>
<feColorMatrix in="SourceAlpha" type="matrix" values="0 0 0 0 0 0 0 0 0 0 0 0 0 0 0 0 0 0 127 0" result="hardAlpha"/>
<feOffset dy="3"/>
<feGaussianBlur stdDeviation="1.5"/>
<feComposite in2="hardAlpha" operator="out"/>
<feColorMatrix type="matrix" values="0 0 0 0 0 0 0 0 0 0 0 0 0 0 0 0 0 0 0.14 0"/>
<feBlend mode="normal" in2="effect1_dropShadow_249_854" result="effect2_dropShadow_249_854"/>
<feBlend mode="normal" in="SourceGraphic" in2="effect2_dropShadow_249_854" result="shape"/>
<feColorMatrix in="SourceAlpha" type="matrix" values="0 0 0 0 0 0 0 0 0 0 0 0 0 0 0 0 0 0 127 0" result="hardAlpha"/>
<feOffset dy="-3"/>
<feComposite in2="hardAlpha" operator="arithmetic" k2="-1" k3="1"/>
<feColorMatrix type="matrix" values="0 0 0 0 0.0313726 0 0 0 0 0.0313726 0 0 0 0 0.0313726 0 0 0 1 0"/>
<feBlend mode="normal" in2="shape" result="effect3_innerShadow_249_854"/>
<feColorMatrix in="SourceAlpha" type="matrix" values="0 0 0 0 0 0 0 0 0 0 0 0 0 0 0 0 0 0 127 0" result="hardAlpha"/>
<feOffset dy="1"/>
<feComposite in2="hardAlpha" operator="arithmetic" k2="-1" k3="1"/>
<feColorMatrix type="matrix" values="0 0 0 0 1 0 0 0 0 1 0 0 0 0 1 0 0 0 0.3 0"/>
<feBlend mode="normal" in2="effect3_innerShadow_249_854" result="effect4_innerShadow_249_854"/>
</filter>
<radialGradient id="paint0_radial_249_854" cx="0" cy="0" r="1" gradientTransform="matrix(50.0503 43.3333 -2.52115 50.0503 25.5126 -8.33333)" gradientUnits="userSpaceOnUse">
<stop stop-color="white"/>
<stop offset="1" stop-color="white" stop-opacity="0"/>
</radialGradient>
<linearGradient id="paint1_linear_249_854" x1="43.6953" y1="21.913" x2="59.9698" y2="48.1466" gradientUnits="userSpaceOnUse">
<stop stop-color="white" stop-opacity="0.8"/>
<stop offset="1" stop-color="white"/>
</linearGradient>
<linearGradient id="paint2_linear_249_854" x1="43.6953" y1="21.913" x2="59.9698" y2="48.1466" gradientUnits="userSpaceOnUse">
<stop stop-color="white" stop-opacity="0.8"/>
<stop offset="1" stop-color="white"/>
</linearGradient>
</defs>
</svg>
