<svg width="100" height="68" viewBox="0 0 100 68" fill="none" xmlns="http://www.w3.org/2000/svg">
<path d="M49.7292 62.8833C44.8668 65.7468 39.1755 67.375 33.1528 67.375C14.8635 67.375 0 52.2718 0 33.6875C0 15.1032 14.8635 0 33.1528 0C39.1755 0 44.8668 1.62823 49.7292 4.49167C39.8386 10.3308 33.1528 21.2231 33.1528 33.6875C33.1528 46.208 39.8386 57.0442 49.7292 62.8833Z" fill="url(#paint0_linear_158_74)"/>
<path d="M49.7292 62.8833C44.8668 65.7468 39.1755 67.375 33.1528 67.375C14.8635 67.375 0 52.2718 0 33.6875C0 15.1032 14.8635 0 33.1528 0C39.1755 0 44.8668 1.62823 49.7292 4.49167C39.8386 10.3308 33.1528 21.2231 33.1528 33.6875C33.1528 46.208 39.8386 57.0442 49.7292 62.8833Z" fill="url(#paint1_radial_158_74)" fill-opacity="0.2"/>
<path d="M49.7292 62.8833C54.5916 65.7468 60.2828 67.375 66.3056 67.375C84.5948 67.375 99.4583 52.2718 99.4583 33.6875C99.4583 15.1032 84.5948 0 66.3056 0C60.2828 0 54.5916 1.62823 49.7292 4.49167C59.6197 10.3308 66.3056 21.2231 66.3056 33.6875C66.3056 46.208 59.6197 57.0442 49.7292 62.8833Z" fill="url(#paint2_linear_158_74)"/>
<path d="M49.7292 62.8833C54.5916 65.7468 60.2828 67.375 66.3056 67.375C84.5948 67.375 99.4583 52.2718 99.4583 33.6875C99.4583 15.1032 84.5948 0 66.3056 0C60.2828 0 54.5916 1.62823 49.7292 4.49167C59.6197 10.3308 66.3056 21.2231 66.3056 33.6875C66.3056 46.208 59.6197 57.0442 49.7292 62.8833Z" fill="url(#paint3_radial_158_74)" fill-opacity="0.2"/>
<defs>
<linearGradient id="paint0_linear_158_74" x1="51.2004" y1="-4.39402" x2="85.3888" y2="50.9948" gradientUnits="userSpaceOnUse">
<stop stop-color="#555D64"/>
<stop offset="1" stop-color="#292C2E"/>
</linearGradient>
<radialGradient id="paint1_radial_158_74" cx="0" cy="0" r="1" gradientTransform="matrix(62.2239 36.4948 -3.13437 42.1517 27.9883 -7.01823)" gradientUnits="userSpaceOnUse">
<stop stop-color="white"/>
<stop offset="1" stop-color="white" stop-opacity="0"/>
</radialGradient>
<linearGradient id="paint2_linear_158_74" x1="51.2004" y1="-4.39402" x2="85.3888" y2="50.9948" gradientUnits="userSpaceOnUse">
<stop stop-color="#555D64"/>
<stop offset="1" stop-color="#292C2E"/>
</linearGradient>
<radialGradient id="paint3_radial_158_74" cx="0" cy="0" r="1" gradientTransform="matrix(62.2239 36.4948 -3.13437 42.1517 27.9883 -7.01823)" gradientUnits="userSpaceOnUse">
<stop stop-color="white"/>
<stop offset="1" stop-color="white" stop-opacity="0"/>
</radialGradient>
</defs>
</svg>
