<svg width="120" height="30" viewBox="0 0 120 30" fill="none" xmlns="http://www.w3.org/2000/svg">
<path d="M45.056 7.2H48.428L54.536 24H51.428L50.348 21.024H43.148L42.068 24H38.96L45.056 7.2ZM44.216 18.096H49.268L46.736 11.172L44.216 18.096ZM56.2681 12H59.1961V24H56.2681V12ZM57.7561 10.452C57.3241 10.452 56.9601 10.312 56.6641 10.032C56.3681 9.744 56.2201 9.384 56.2201 8.952C56.2201 8.528 56.3681 8.172 56.6641 7.884C56.9601 7.596 57.3201 7.452 57.7441 7.452C58.1681 7.452 58.5241 7.596 58.8121 7.884C59.1081 8.172 59.2561 8.528 59.2561 8.952C59.2561 9.384 59.1121 9.744 58.8241 10.032C58.5361 10.312 58.1801 10.452 57.7561 10.452ZM70.7034 12H73.6314V24.228C73.6314 25.092 73.4554 25.876 73.1034 26.58C72.7514 27.292 72.2714 27.9 71.6634 28.404C71.0554 28.916 70.3594 29.308 69.5754 29.58C68.7914 29.86 67.9674 30 67.1034 30C66.2634 30 65.4554 29.828 64.6794 29.484C63.9034 29.14 63.2154 28.668 62.6154 28.068C62.0234 27.476 61.5714 26.8 61.2594 26.04L63.9354 24.828C64.0954 25.268 64.3354 25.652 64.6554 25.98C64.9834 26.316 65.3594 26.576 65.7834 26.76C66.2074 26.952 66.6474 27.048 67.1034 27.048C67.5674 27.048 68.0114 26.984 68.4354 26.856C68.8674 26.728 69.2554 26.54 69.5994 26.292C69.9434 26.052 70.2114 25.756 70.4034 25.404C70.6034 25.06 70.7034 24.668 70.7034 24.228V22.536C70.3274 23.064 69.8554 23.492 69.2874 23.82C68.7194 24.148 68.0634 24.312 67.3194 24.312C66.4554 24.312 65.6474 24.148 64.8954 23.82C64.1434 23.492 63.4794 23.04 62.9034 22.464C62.3354 21.88 61.8874 21.208 61.5594 20.448C61.2394 19.688 61.0794 18.872 61.0794 18C61.0794 17.128 61.2394 16.312 61.5594 15.552C61.8874 14.792 62.3354 14.124 62.9034 13.548C63.4794 12.964 64.1434 12.508 64.8954 12.18C65.6474 11.852 66.4554 11.688 67.3194 11.688C68.0634 11.688 68.7194 11.852 69.2874 12.18C69.8554 12.5 70.3274 12.924 70.7034 13.452V12ZM67.3554 21.492C67.9714 21.492 68.5154 21.336 68.9874 21.024C69.4674 20.704 69.8434 20.28 70.1154 19.752C70.3874 19.216 70.5234 18.632 70.5234 18C70.5234 17.36 70.3834 16.776 70.1034 16.248C69.8314 15.72 69.4554 15.296 68.9754 14.976C68.5034 14.656 67.9634 14.496 67.3554 14.496C66.7554 14.496 66.2074 14.656 65.7114 14.976C65.2154 15.288 64.8194 15.708 64.5234 16.236C64.2274 16.764 64.0794 17.352 64.0794 18C64.0794 18.648 64.2274 19.236 64.5234 19.764C64.8194 20.292 65.2154 20.712 65.7114 21.024C66.2074 21.336 66.7554 21.492 67.3554 21.492ZM81.5169 24.312C80.4129 24.312 79.4049 24.028 78.4929 23.46C77.5889 22.892 76.8649 22.132 76.3209 21.18C75.7849 20.22 75.5169 19.16 75.5169 18C75.5169 17.12 75.6729 16.3 75.9849 15.54C76.2969 14.772 76.7249 14.1 77.2689 13.524C77.8209 12.94 78.4609 12.484 79.1889 12.156C79.9169 11.828 80.6929 11.664 81.5169 11.664C82.6209 11.664 83.6249 11.948 84.5289 12.516C85.4409 13.084 86.1649 13.848 86.7009 14.808C87.2449 15.768 87.5169 16.832 87.5169 18C87.5169 18.872 87.3609 19.688 87.0489 20.448C86.7369 21.208 86.3049 21.88 85.7529 22.464C85.2089 23.04 84.5729 23.492 83.8449 23.82C83.1249 24.148 82.3489 24.312 81.5169 24.312ZM81.5169 21.384C82.1009 21.384 82.6249 21.228 83.0889 20.916C83.5529 20.604 83.9169 20.192 84.1809 19.68C84.4529 19.168 84.5889 18.608 84.5889 18C84.5889 17.376 84.4489 16.808 84.1689 16.296C83.8969 15.776 83.5249 15.364 83.0529 15.06C82.5889 14.748 82.0769 14.592 81.5169 14.592C80.9409 14.592 80.4209 14.748 79.9569 15.06C79.4929 15.372 79.1249 15.788 78.8529 16.308C78.5809 16.828 78.4449 17.392 78.4449 18C78.4449 18.632 78.5849 19.204 78.8649 19.716C79.1449 20.228 79.5169 20.636 79.9809 20.94C80.4529 21.236 80.9649 21.384 81.5169 21.384ZM96.8722 20.388L99.5122 21.816C98.9602 22.568 98.2682 23.172 97.4362 23.628C96.6042 24.084 95.6962 24.312 94.7122 24.312C93.6082 24.312 92.6002 24.028 91.6882 23.46C90.7842 22.892 90.0602 22.132 89.5162 21.18C88.9802 20.22 88.7122 19.16 88.7122 18C88.7122 17.12 88.8682 16.3 89.1802 15.54C89.4922 14.772 89.9202 14.1 90.4642 13.524C91.0162 12.94 91.6562 12.484 92.3842 12.156C93.1122 11.828 93.8882 11.664 94.7122 11.664C95.6962 11.664 96.6042 11.892 97.4362 12.348C98.2682 12.804 98.9602 13.416 99.5122 14.184L96.8722 15.6C96.5922 15.28 96.2602 15.032 95.8762 14.856C95.5002 14.68 95.1122 14.592 94.7122 14.592C94.1362 14.592 93.6162 14.752 93.1522 15.072C92.6882 15.384 92.3202 15.8 92.0482 16.32C91.7762 16.832 91.6402 17.392 91.6402 18C91.6402 18.6 91.7762 19.16 92.0482 19.68C92.3202 20.192 92.6882 20.604 93.1522 20.916C93.6162 21.228 94.1362 21.384 94.7122 21.384C95.1282 21.384 95.5242 21.296 95.9002 21.12C96.2762 20.936 96.6002 20.692 96.8722 20.388ZM108.985 12H112.093L105.529 30H102.421L104.593 24L100.273 12H103.477L106.057 19.992L108.985 12Z" fill="url(#paint0_linear_6055_1003)"/>
<path d="M15.623 24.6C14.1075 25.4925 12.3336 26 10.4564 26C4.75583 26 0.123047 21.2925 0.123047 15.5C0.123047 9.7075 4.75583 5 10.4564 5C12.3336 5 14.1075 5.5075 15.623 6.4C12.5403 8.22 10.4564 11.615 10.4564 15.5C10.4564 19.4025 12.5403 22.78 15.623 24.6Z" fill="url(#paint1_linear_6055_1003)"/>
<path d="M15.623 24.6C14.1075 25.4925 12.3336 26 10.4564 26C4.75583 26 0.123047 21.2925 0.123047 15.5C0.123047 9.7075 4.75583 5 10.4564 5C12.3336 5 14.1075 5.5075 15.623 6.4C12.5403 8.22 10.4564 11.615 10.4564 15.5C10.4564 19.4025 12.5403 22.78 15.623 24.6Z" fill="url(#paint2_radial_6055_1003)" fill-opacity="0.2"/>
<path d="M15.623 24.6C17.1386 25.4925 18.9125 26 20.7897 26C26.4903 26 31.123 21.2925 31.123 15.5C31.123 9.7075 26.4903 5 20.7897 5C18.9125 5 17.1386 5.5075 15.623 6.4C18.7058 8.22 20.7897 11.615 20.7897 15.5C20.7897 19.4025 18.7058 22.78 15.623 24.6Z" fill="url(#paint3_linear_6055_1003)"/>
<path d="M15.623 24.6C17.1386 25.4925 18.9125 26 20.7897 26C26.4903 26 31.123 21.2925 31.123 15.5C31.123 9.7075 26.4903 5 20.7897 5C18.9125 5 17.1386 5.5075 15.623 6.4C18.7058 8.22 20.7897 11.615 20.7897 15.5C20.7897 19.4025 18.7058 22.78 15.623 24.6Z" fill="url(#paint4_radial_6055_1003)" fill-opacity="0.2"/>
<defs>
<linearGradient id="paint0_linear_6055_1003" x1="80.1833" y1="-7.56295" x2="93.5458" y2="27.3585" gradientUnits="userSpaceOnUse">
<stop stop-color="#555D64"/>
<stop offset="1" stop-color="#292C2E"/>
</linearGradient>
<linearGradient id="paint1_linear_6055_1003" x1="16.0816" y1="3.63043" x2="26.7377" y2="20.8945" gradientUnits="userSpaceOnUse">
<stop stop-color="#555D64"/>
<stop offset="1" stop-color="#292C2E"/>
</linearGradient>
<radialGradient id="paint2_radial_6055_1003" cx="0" cy="0" r="1" gradientTransform="matrix(19.3945 11.375 -0.976945 13.1382 8.84666 2.8125)" gradientUnits="userSpaceOnUse">
<stop stop-color="white"/>
<stop offset="1" stop-color="white" stop-opacity="0"/>
</radialGradient>
<linearGradient id="paint3_linear_6055_1003" x1="16.0816" y1="3.63043" x2="26.7377" y2="20.8945" gradientUnits="userSpaceOnUse">
<stop stop-color="#555D64"/>
<stop offset="1" stop-color="#292C2E"/>
</linearGradient>
<radialGradient id="paint4_radial_6055_1003" cx="0" cy="0" r="1" gradientTransform="matrix(19.3945 11.375 -0.976945 13.1382 8.84666 2.8125)" gradientUnits="userSpaceOnUse">
<stop stop-color="white"/>
<stop offset="1" stop-color="white" stop-opacity="0"/>
</radialGradient>
</defs>
</svg>
